<?xml version="1.0" encoding="UTF-8"?>
<svg width="88px" height="88px" viewBox="0 0 88 88" version="1.1" xmlns="http://www.w3.org/2000/svg" xmlns:xlink="http://www.w3.org/1999/xlink">
    <!-- Generator: Sketch 49.1 (51147) - http://www.bohemiancoding.com/sketch -->
    <title>noun_929913_cc</title>
    <desc>Created with Sketch.</desc>
    <defs></defs>
    <g id="Color-Scheme2_Light" stroke="none" stroke-width="1" fill="none" fill-rule="evenodd">
        <g id="noun_929913_cc" transform="translate(0.000000, -1.000000)" fill="#000000" fill-rule="nonzero">
            <g id="Group" transform="translate(0.000000, 0.637840)">
                <path d="M44,0.36216 C19.723158,0.36216 0,20.08528 0,44.36216 C0,68.63896 19.723154,88.36216 44,88.36216 C68.276846,88.36216 88,68.63896 88,44.36216 C88,20.08528 68.276842,0.36216 44,0.36216 Z M44,4.36216 C66.115082,4.36216 84,22.24704 84,44.36216 C84,66.47716 66.115078,84.36216 44,84.36216 C21.884922,84.36216 4,66.47716 4,44.36216 C4,22.24704 21.884918,4.36216 44,4.36216 Z M44,16.36216 C36.84399,16.36216 31,22.20618 31,29.36216 C31,34.44588 33.944818,38.883883 38.21875,41.01841 C33.512511,42.057147 29.107006,44.318073 25.65625,47.61216 C20.824505,52.22456 18.008473,58.67526 18,65.23716 C17.999919,65.24716 18.000067,65.25841 18,65.26841 C17.9975,65.65471 18.01498,66.03866 18.03125,66.42466 C18.0651225,67.5047017 18.9506774,68.362583 20.03125,68.36216 L54,68.36216 C54.7212718,68.3723606 55.3921627,67.9934094 55.7557754,67.3704143 C56.1193882,66.7474192 56.1193882,65.9769008 55.7557754,65.3539057 C55.3921627,64.7309106 54.7212718,64.3519594 54,64.36216 L22.09375,64.36216 C22.340312,59.24186 24.585622,54.16561 28.40625,50.51841 C32.452434,46.65601 38.2407,44.36216 44,44.36216 C49.759295,44.36216 55.547566,46.65601 59.59375,50.51841 C63.639929,54.38091 66.000348,59.84581 66,65.26841 C66.0025,65.59881 65.98268,65.93881 65.96875,66.26841 C65.9401043,66.9833901 66.2953252,67.6592756 66.9004482,68.0411698 C67.5055712,68.423064 68.2685357,68.4528673 68.9016049,68.11934 C69.5346741,67.7858126 69.9415357,67.139696 69.96875,66.42466 C69.98508,66.03836 70.00247,65.65451 70,65.26841 C70.000001,65.25841 70.000013,65.24716 70,65.23716 C69.9915,58.67526 67.175496,52.22456 62.34375,47.61216 C58.892993,44.318073 54.487488,42.057147 49.78125,41.01841 C54.055181,38.883883 57,34.44588 57,29.36216 C57,22.20618 51.155995,16.36216 44,16.36216 Z M44,20.36216 C48.994263,20.36216 53,24.36794 53,29.36216 C53,34.35635 48.994214,38.36216 44,38.36216 C39.005765,38.36216 35,34.35635 35,29.36216 C35,24.36794 39.005716,20.36216 44,20.36216 Z M61,64.36216 C59.895431,64.36216 59,65.257591 59,66.36216 C59,67.466729 59.895431,68.36216 61,68.36216 C62.104569,68.36216 63,67.466729 63,66.36216 C63,65.257591 62.104569,64.36216 61,64.36216 Z" id="Shape"></path>
            </g>
        </g>
    </g>
</svg>